<?xml version="1.0" encoding="UTF-8"?>
<svg id="Layer_2" data-name="Layer 2" xmlns="http://www.w3.org/2000/svg" viewBox="0 0 1158.64 271.41">
  <defs>
    <style>
      .cls-1 {
        fill: #fff;
        stroke-width: 0px;
      }
    </style>
  </defs>
  <g id="Layer_1-2" data-name="Layer 1">
    <g>
      <g>
        <path class="cls-1" d="m150.21,153.63v56.33h-29.02V63.16h29.02v56.33h120.34C262.02,52.06,204.84,0,135.7,0,60.6,0,0,60.6,0,135.7s60.6,135.7,135.7,135.7c69.13,0,126.32-52.06,134.85-119.49l-120.34,1.71h0Z"/>
        <g>
          <path class="cls-1" d="m461.74,157.89c-6.83,13.66-21.34,23.04-38.41,23.04-23.9,0-42.67-18.78-42.67-42.67s18.78-42.67,42.67-42.67c17.07,0,31.58,9.39,38.41,23.04h33.29c-1.71-5.12-3.41-9.39-5.97-14.51h0c-11.95-23.9-36.7-39.26-65.72-39.26-40.97,0-74.25,33.29-74.25,74.25s33.29,74.25,74.25,74.25c28.17,0,52.92-16.22,65.72-39.26h0c2.56-4.27,4.27-9.39,5.97-14.51l-33.29-1.71Z"/>
          <path class="cls-1" d="m620.48,93.88h-35.85v116.07h-31.58v-116.07h-36.7v-28.17h104.13v28.17Z"/>
        </g>
      </g>
      <g>
        <path class="cls-1" d="m620.48,195.87c0-10.24,8.45-18.69,18.43-18.69s18.95,8.45,18.95,18.69-8.71,18.69-18.95,18.69-18.43-8.45-18.43-18.69Z"/>
        <path class="cls-1" d="m826.84,128.28v7.42c0,43.52-35.33,78.86-78.86,78.86s-78.86-35.33-78.86-78.86,35.08-78.86,78.86-78.86c30.21,0,56.58,17.15,69.9,42.24l-29.19,15.11c-7.68-14.59-22.53-24.32-40.71-24.32-25.86,0-45.83,19.97-45.83,45.83s19.97,45.83,45.83,45.83c18.95,0,34.82-10.75,41.99-26.88h-42.24v-26.37h79.11Z"/>
        <path class="cls-1" d="m846.04,135.7c0-43.52,35.33-78.86,78.86-78.86s78.86,35.33,78.86,78.86-35.08,78.86-78.86,78.86-78.86-35.33-78.86-78.86Zm124.69,0c0-25.86-19.71-45.83-45.83-45.83s-45.57,19.97-45.57,45.83,19.71,45.83,45.57,45.83,45.83-19.97,45.83-45.83Z"/>
        <path class="cls-1" d="m1158.64,58.9l-55.3,153.62h-37.89l-55.3-153.62h37.64l36.61,109.84,36.61-109.84h37.64Z"/>
      </g>
    </g>
  </g>
</svg>